<mxfile host="Electron" modified="2023-09-05T14:39:22.085Z" agent="Mozilla/5.0 (Macintosh; Intel Mac OS X 10_15_7) AppleWebKit/537.36 (KHTML, like Gecko) draw.io/21.6.8 Chrome/114.0.5735.289 Electron/25.5.0 Safari/537.36" etag="PCy0eLTDvFD1exc2aS51" version="21.6.8" type="device" pages="2">
  <diagram name="Page-1" id="CJh6dQjYukupnx_bEuH5">
    <mxGraphModel dx="1190" dy="778" grid="1" gridSize="10" guides="1" tooltips="1" connect="1" arrows="1" fold="1" page="1" pageScale="1" pageWidth="850" pageHeight="1100" math="0" shadow="0">
      <root>
        <mxCell id="0" />
        <mxCell id="1" parent="0" />
        <mxCell id="33A3DfncLVL2TN76MGAl-1" value="SystemWideEventPublisher" style="rounded=1;whiteSpace=wrap;html=1;fontFamily=Comic Sans MS;dashed=1;fillColor=#d5e8d4;strokeColor=#82b366;" vertex="1" parent="1">
          <mxGeometry x="490" y="110" width="170" height="60" as="geometry" />
        </mxCell>
        <mxCell id="33A3DfncLVL2TN76MGAl-5" style="edgeStyle=orthogonalEdgeStyle;rounded=0;orthogonalLoop=1;jettySize=auto;html=1;exitX=1;exitY=0.5;exitDx=0;exitDy=0;entryX=0;entryY=0.5;entryDx=0;entryDy=0;" edge="1" parent="1" source="33A3DfncLVL2TN76MGAl-2" target="33A3DfncLVL2TN76MGAl-4">
          <mxGeometry relative="1" as="geometry" />
        </mxCell>
        <mxCell id="33A3DfncLVL2TN76MGAl-2" value="Chi::Initialize()" style="rounded=1;whiteSpace=wrap;html=1;fontFamily=Comic Sans MS;fillColor=#dae8fc;strokeColor=#6c8ebf;" vertex="1" parent="1">
          <mxGeometry x="10" y="195" width="120" height="30" as="geometry" />
        </mxCell>
        <mxCell id="33A3DfncLVL2TN76MGAl-10" style="edgeStyle=orthogonalEdgeStyle;rounded=0;orthogonalLoop=1;jettySize=auto;html=1;exitX=1;exitY=0.5;exitDx=0;exitDy=0;entryX=0;entryY=0.5;entryDx=0;entryDy=0;" edge="1" parent="1" source="33A3DfncLVL2TN76MGAl-3" target="33A3DfncLVL2TN76MGAl-9">
          <mxGeometry relative="1" as="geometry" />
        </mxCell>
        <mxCell id="33A3DfncLVL2TN76MGAl-3" value="Chi::Finalize()" style="rounded=1;whiteSpace=wrap;html=1;fontFamily=Comic Sans MS;fillColor=#dae8fc;strokeColor=#6c8ebf;" vertex="1" parent="1">
          <mxGeometry x="10" y="670" width="120" height="40" as="geometry" />
        </mxCell>
        <mxCell id="33A3DfncLVL2TN76MGAl-7" style="edgeStyle=orthogonalEdgeStyle;rounded=0;orthogonalLoop=1;jettySize=auto;html=1;exitX=1;exitY=0.5;exitDx=0;exitDy=0;entryX=0;entryY=0.5;entryDx=0;entryDy=0;" edge="1" parent="1" source="33A3DfncLVL2TN76MGAl-4" target="33A3DfncLVL2TN76MGAl-6">
          <mxGeometry relative="1" as="geometry" />
        </mxCell>
        <mxCell id="33A3DfncLVL2TN76MGAl-4" value="&quot;ProgramStart&quot;" style="rounded=1;whiteSpace=wrap;html=1;fontFamily=Comic Sans MS;fillColor=#fff2cc;strokeColor=#d6b656;" vertex="1" parent="1">
          <mxGeometry x="150" y="200" width="150" height="20" as="geometry" />
        </mxCell>
        <mxCell id="QYFggorQQqFWifRBlDVO-38" style="edgeStyle=orthogonalEdgeStyle;rounded=0;orthogonalLoop=1;jettySize=auto;html=1;exitX=0.5;exitY=1;exitDx=0;exitDy=0;entryX=0;entryY=0.5;entryDx=0;entryDy=0;" edge="1" parent="1" source="33A3DfncLVL2TN76MGAl-6" target="QYFggorQQqFWifRBlDVO-37">
          <mxGeometry relative="1" as="geometry" />
        </mxCell>
        <mxCell id="33A3DfncLVL2TN76MGAl-6" value="PublishEvent" style="rounded=1;whiteSpace=wrap;html=1;fontFamily=Comic Sans MS;fillColor=#d5e8d4;strokeColor=#82b366;" vertex="1" parent="1">
          <mxGeometry x="525" y="190" width="100" height="40" as="geometry" />
        </mxCell>
        <mxCell id="QYFggorQQqFWifRBlDVO-28" style="edgeStyle=orthogonalEdgeStyle;rounded=0;orthogonalLoop=1;jettySize=auto;html=1;exitX=1;exitY=0.5;exitDx=0;exitDy=0;" edge="1" parent="1" source="33A3DfncLVL2TN76MGAl-9" target="QYFggorQQqFWifRBlDVO-19">
          <mxGeometry relative="1" as="geometry" />
        </mxCell>
        <mxCell id="33A3DfncLVL2TN76MGAl-9" value="&quot;ProgramExecuted&quot;" style="rounded=1;whiteSpace=wrap;html=1;fontFamily=Comic Sans MS;fillColor=#fff2cc;strokeColor=#d6b656;" vertex="1" parent="1">
          <mxGeometry x="150" y="680" width="150" height="20" as="geometry" />
        </mxCell>
        <mxCell id="33A3DfncLVL2TN76MGAl-12" value="PhysicsEventPublisher" style="rounded=1;whiteSpace=wrap;html=1;fontFamily=Comic Sans MS;dashed=1;fillColor=#ffe6cc;strokeColor=#d79b00;" vertex="1" parent="1">
          <mxGeometry x="320" y="110" width="160" height="60" as="geometry" />
        </mxCell>
        <mxCell id="33A3DfncLVL2TN76MGAl-20" style="edgeStyle=orthogonalEdgeStyle;rounded=0;orthogonalLoop=1;jettySize=auto;html=1;exitX=0.5;exitY=1;exitDx=0;exitDy=0;entryX=0;entryY=0.5;entryDx=0;entryDy=0;" edge="1" parent="1" source="33A3DfncLVL2TN76MGAl-13" target="33A3DfncLVL2TN76MGAl-18">
          <mxGeometry relative="1" as="geometry" />
        </mxCell>
        <mxCell id="33A3DfncLVL2TN76MGAl-13" value="chi_physics::Solver::Initialize()" style="rounded=1;whiteSpace=wrap;html=1;fontFamily=Comic Sans MS;fillColor=#dae8fc;strokeColor=#6c8ebf;" vertex="1" parent="1">
          <mxGeometry x="10" y="240" width="200" height="30" as="geometry" />
        </mxCell>
        <mxCell id="QYFggorQQqFWifRBlDVO-3" style="edgeStyle=orthogonalEdgeStyle;rounded=0;orthogonalLoop=1;jettySize=auto;html=1;exitX=0.5;exitY=1;exitDx=0;exitDy=0;entryX=0;entryY=0.5;entryDx=0;entryDy=0;" edge="1" parent="1" source="33A3DfncLVL2TN76MGAl-14" target="QYFggorQQqFWifRBlDVO-1">
          <mxGeometry relative="1" as="geometry" />
        </mxCell>
        <mxCell id="33A3DfncLVL2TN76MGAl-14" value="chi_physics::Solver::Execute()" style="rounded=1;whiteSpace=wrap;html=1;fontFamily=Comic Sans MS;fillColor=#dae8fc;strokeColor=#6c8ebf;" vertex="1" parent="1">
          <mxGeometry x="10" y="350" width="200" height="30" as="geometry" />
        </mxCell>
        <mxCell id="QYFggorQQqFWifRBlDVO-9" style="edgeStyle=orthogonalEdgeStyle;rounded=0;orthogonalLoop=1;jettySize=auto;html=1;exitX=0.5;exitY=1;exitDx=0;exitDy=0;entryX=0;entryY=0.5;entryDx=0;entryDy=0;" edge="1" parent="1" source="33A3DfncLVL2TN76MGAl-15" target="QYFggorQQqFWifRBlDVO-7">
          <mxGeometry relative="1" as="geometry" />
        </mxCell>
        <mxCell id="33A3DfncLVL2TN76MGAl-15" value="chi_physics::Solver::Step()" style="rounded=1;whiteSpace=wrap;html=1;fontFamily=Comic Sans MS;fillColor=#dae8fc;strokeColor=#6c8ebf;" vertex="1" parent="1">
          <mxGeometry x="10" y="450" width="200" height="30" as="geometry" />
        </mxCell>
        <mxCell id="QYFggorQQqFWifRBlDVO-15" style="edgeStyle=orthogonalEdgeStyle;rounded=0;orthogonalLoop=1;jettySize=auto;html=1;exitX=0.5;exitY=1;exitDx=0;exitDy=0;entryX=0;entryY=0.5;entryDx=0;entryDy=0;" edge="1" parent="1" source="33A3DfncLVL2TN76MGAl-16" target="QYFggorQQqFWifRBlDVO-13">
          <mxGeometry relative="1" as="geometry" />
        </mxCell>
        <mxCell id="33A3DfncLVL2TN76MGAl-16" value="chi_physics::Solver::Advance()" style="rounded=1;whiteSpace=wrap;html=1;fontFamily=Comic Sans MS;fillColor=#dae8fc;strokeColor=#6c8ebf;" vertex="1" parent="1">
          <mxGeometry x="10" y="550" width="200" height="30" as="geometry" />
        </mxCell>
        <mxCell id="33A3DfncLVL2TN76MGAl-21" style="edgeStyle=orthogonalEdgeStyle;rounded=0;orthogonalLoop=1;jettySize=auto;html=1;exitX=0.5;exitY=1;exitDx=0;exitDy=0;entryX=0.5;entryY=0;entryDx=0;entryDy=0;" edge="1" parent="1" source="33A3DfncLVL2TN76MGAl-18" target="33A3DfncLVL2TN76MGAl-19">
          <mxGeometry relative="1" as="geometry" />
        </mxCell>
        <mxCell id="33A3DfncLVL2TN76MGAl-23" style="edgeStyle=orthogonalEdgeStyle;rounded=0;orthogonalLoop=1;jettySize=auto;html=1;exitX=1;exitY=0.5;exitDx=0;exitDy=0;entryX=0;entryY=0.5;entryDx=0;entryDy=0;" edge="1" parent="1" source="33A3DfncLVL2TN76MGAl-18" target="33A3DfncLVL2TN76MGAl-22">
          <mxGeometry relative="1" as="geometry" />
        </mxCell>
        <mxCell id="33A3DfncLVL2TN76MGAl-18" value="&quot;SolverPreInitialize&quot;" style="rounded=1;whiteSpace=wrap;html=1;fontFamily=Comic Sans MS;fillColor=#fff2cc;strokeColor=#d6b656;" vertex="1" parent="1">
          <mxGeometry x="150" y="290" width="150" height="20" as="geometry" />
        </mxCell>
        <mxCell id="33A3DfncLVL2TN76MGAl-19" value="&quot;SolverInitialized&quot;" style="rounded=1;whiteSpace=wrap;html=1;fontFamily=Comic Sans MS;fillColor=#fff2cc;strokeColor=#d6b656;" vertex="1" parent="1">
          <mxGeometry x="150" y="320" width="150" height="20" as="geometry" />
        </mxCell>
        <mxCell id="QYFggorQQqFWifRBlDVO-24" style="edgeStyle=orthogonalEdgeStyle;rounded=0;orthogonalLoop=1;jettySize=auto;html=1;exitX=1;exitY=0.5;exitDx=0;exitDy=0;" edge="1" parent="1" source="33A3DfncLVL2TN76MGAl-22" target="QYFggorQQqFWifRBlDVO-23">
          <mxGeometry relative="1" as="geometry" />
        </mxCell>
        <mxCell id="QYFggorQQqFWifRBlDVO-30" style="edgeStyle=orthogonalEdgeStyle;rounded=0;orthogonalLoop=1;jettySize=auto;html=1;exitX=0.5;exitY=1;exitDx=0;exitDy=0;entryX=0;entryY=0.5;entryDx=0;entryDy=0;" edge="1" parent="1" source="33A3DfncLVL2TN76MGAl-22" target="QYFggorQQqFWifRBlDVO-29">
          <mxGeometry relative="1" as="geometry" />
        </mxCell>
        <mxCell id="33A3DfncLVL2TN76MGAl-22" value="PublishEvent" style="rounded=1;whiteSpace=wrap;html=1;fontFamily=Comic Sans MS;fillColor=#ffe6cc;strokeColor=#d79b00;" vertex="1" parent="1">
          <mxGeometry x="350" y="280" width="100" height="40" as="geometry" />
        </mxCell>
        <mxCell id="QYFggorQQqFWifRBlDVO-4" style="edgeStyle=orthogonalEdgeStyle;rounded=0;orthogonalLoop=1;jettySize=auto;html=1;exitX=0.5;exitY=1;exitDx=0;exitDy=0;entryX=0.5;entryY=0;entryDx=0;entryDy=0;" edge="1" parent="1" source="QYFggorQQqFWifRBlDVO-1" target="QYFggorQQqFWifRBlDVO-2">
          <mxGeometry relative="1" as="geometry" />
        </mxCell>
        <mxCell id="QYFggorQQqFWifRBlDVO-6" style="edgeStyle=orthogonalEdgeStyle;rounded=0;orthogonalLoop=1;jettySize=auto;html=1;exitX=1;exitY=0.5;exitDx=0;exitDy=0;" edge="1" parent="1" source="QYFggorQQqFWifRBlDVO-1" target="QYFggorQQqFWifRBlDVO-5">
          <mxGeometry relative="1" as="geometry" />
        </mxCell>
        <mxCell id="QYFggorQQqFWifRBlDVO-1" value="&quot;SolverPreExecution&quot;" style="rounded=1;whiteSpace=wrap;html=1;fontFamily=Comic Sans MS;fillColor=#fff2cc;strokeColor=#d6b656;" vertex="1" parent="1">
          <mxGeometry x="150" y="390" width="150" height="20" as="geometry" />
        </mxCell>
        <mxCell id="QYFggorQQqFWifRBlDVO-2" value="&quot;Executed&quot;" style="rounded=1;whiteSpace=wrap;html=1;fontFamily=Comic Sans MS;fillColor=#fff2cc;strokeColor=#d6b656;" vertex="1" parent="1">
          <mxGeometry x="150" y="420" width="150" height="20" as="geometry" />
        </mxCell>
        <mxCell id="QYFggorQQqFWifRBlDVO-25" style="edgeStyle=orthogonalEdgeStyle;rounded=0;orthogonalLoop=1;jettySize=auto;html=1;exitX=1;exitY=0.5;exitDx=0;exitDy=0;entryX=0;entryY=0.5;entryDx=0;entryDy=0;" edge="1" parent="1" source="QYFggorQQqFWifRBlDVO-5" target="QYFggorQQqFWifRBlDVO-22">
          <mxGeometry relative="1" as="geometry" />
        </mxCell>
        <mxCell id="QYFggorQQqFWifRBlDVO-32" style="edgeStyle=orthogonalEdgeStyle;rounded=0;orthogonalLoop=1;jettySize=auto;html=1;exitX=0.5;exitY=1;exitDx=0;exitDy=0;entryX=0;entryY=0.5;entryDx=0;entryDy=0;" edge="1" parent="1" source="QYFggorQQqFWifRBlDVO-5" target="QYFggorQQqFWifRBlDVO-31">
          <mxGeometry relative="1" as="geometry" />
        </mxCell>
        <mxCell id="QYFggorQQqFWifRBlDVO-5" value="PublishEvent" style="rounded=1;whiteSpace=wrap;html=1;fontFamily=Comic Sans MS;fillColor=#ffe6cc;strokeColor=#d79b00;" vertex="1" parent="1">
          <mxGeometry x="350" y="380" width="100" height="40" as="geometry" />
        </mxCell>
        <mxCell id="QYFggorQQqFWifRBlDVO-10" style="edgeStyle=orthogonalEdgeStyle;rounded=0;orthogonalLoop=1;jettySize=auto;html=1;exitX=0.5;exitY=1;exitDx=0;exitDy=0;entryX=0.5;entryY=0;entryDx=0;entryDy=0;" edge="1" parent="1" source="QYFggorQQqFWifRBlDVO-7" target="QYFggorQQqFWifRBlDVO-8">
          <mxGeometry relative="1" as="geometry" />
        </mxCell>
        <mxCell id="QYFggorQQqFWifRBlDVO-12" style="edgeStyle=orthogonalEdgeStyle;rounded=0;orthogonalLoop=1;jettySize=auto;html=1;exitX=1;exitY=0.5;exitDx=0;exitDy=0;entryX=0;entryY=0.5;entryDx=0;entryDy=0;" edge="1" parent="1" source="QYFggorQQqFWifRBlDVO-7" target="QYFggorQQqFWifRBlDVO-11">
          <mxGeometry relative="1" as="geometry" />
        </mxCell>
        <mxCell id="QYFggorQQqFWifRBlDVO-7" value="&quot;SolverPreExecution&quot;" style="rounded=1;whiteSpace=wrap;html=1;fontFamily=Comic Sans MS;fillColor=#fff2cc;strokeColor=#d6b656;" vertex="1" parent="1">
          <mxGeometry x="150" y="490" width="150" height="20" as="geometry" />
        </mxCell>
        <mxCell id="QYFggorQQqFWifRBlDVO-8" value="&quot;Executed&quot;" style="rounded=1;whiteSpace=wrap;html=1;fontFamily=Comic Sans MS;fillColor=#fff2cc;strokeColor=#d6b656;" vertex="1" parent="1">
          <mxGeometry x="150" y="520" width="150" height="20" as="geometry" />
        </mxCell>
        <mxCell id="QYFggorQQqFWifRBlDVO-26" style="edgeStyle=orthogonalEdgeStyle;rounded=0;orthogonalLoop=1;jettySize=auto;html=1;exitX=1;exitY=0.5;exitDx=0;exitDy=0;entryX=0;entryY=0.5;entryDx=0;entryDy=0;" edge="1" parent="1" source="QYFggorQQqFWifRBlDVO-11" target="QYFggorQQqFWifRBlDVO-21">
          <mxGeometry relative="1" as="geometry" />
        </mxCell>
        <mxCell id="QYFggorQQqFWifRBlDVO-34" style="edgeStyle=orthogonalEdgeStyle;rounded=0;orthogonalLoop=1;jettySize=auto;html=1;exitX=0.5;exitY=1;exitDx=0;exitDy=0;entryX=0;entryY=0.5;entryDx=0;entryDy=0;" edge="1" parent="1" source="QYFggorQQqFWifRBlDVO-11" target="QYFggorQQqFWifRBlDVO-33">
          <mxGeometry relative="1" as="geometry" />
        </mxCell>
        <mxCell id="QYFggorQQqFWifRBlDVO-11" value="PublishEvent" style="rounded=1;whiteSpace=wrap;html=1;fontFamily=Comic Sans MS;fillColor=#ffe6cc;strokeColor=#d79b00;" vertex="1" parent="1">
          <mxGeometry x="350" y="480" width="100" height="40" as="geometry" />
        </mxCell>
        <mxCell id="QYFggorQQqFWifRBlDVO-16" style="edgeStyle=orthogonalEdgeStyle;rounded=0;orthogonalLoop=1;jettySize=auto;html=1;exitX=0.5;exitY=1;exitDx=0;exitDy=0;entryX=0.5;entryY=0;entryDx=0;entryDy=0;" edge="1" parent="1" source="QYFggorQQqFWifRBlDVO-13" target="QYFggorQQqFWifRBlDVO-14">
          <mxGeometry relative="1" as="geometry" />
        </mxCell>
        <mxCell id="QYFggorQQqFWifRBlDVO-18" style="edgeStyle=orthogonalEdgeStyle;rounded=0;orthogonalLoop=1;jettySize=auto;html=1;exitX=1;exitY=0.5;exitDx=0;exitDy=0;entryX=0;entryY=0.5;entryDx=0;entryDy=0;" edge="1" parent="1" source="QYFggorQQqFWifRBlDVO-13" target="QYFggorQQqFWifRBlDVO-17">
          <mxGeometry relative="1" as="geometry" />
        </mxCell>
        <mxCell id="QYFggorQQqFWifRBlDVO-13" value="&quot;SolverPreAdvance&quot;" style="rounded=1;whiteSpace=wrap;html=1;fontFamily=Comic Sans MS;fillColor=#fff2cc;strokeColor=#d6b656;" vertex="1" parent="1">
          <mxGeometry x="150" y="590" width="150" height="20" as="geometry" />
        </mxCell>
        <mxCell id="QYFggorQQqFWifRBlDVO-14" value="&quot;SolverAdvanced&quot;" style="rounded=1;whiteSpace=wrap;html=1;fontFamily=Comic Sans MS;fillColor=#fff2cc;strokeColor=#d6b656;" vertex="1" parent="1">
          <mxGeometry x="150" y="620" width="150" height="20" as="geometry" />
        </mxCell>
        <mxCell id="QYFggorQQqFWifRBlDVO-27" style="edgeStyle=orthogonalEdgeStyle;rounded=0;orthogonalLoop=1;jettySize=auto;html=1;exitX=1;exitY=0.5;exitDx=0;exitDy=0;entryX=0;entryY=0.5;entryDx=0;entryDy=0;" edge="1" parent="1" source="QYFggorQQqFWifRBlDVO-17" target="QYFggorQQqFWifRBlDVO-20">
          <mxGeometry relative="1" as="geometry" />
        </mxCell>
        <mxCell id="QYFggorQQqFWifRBlDVO-36" style="edgeStyle=orthogonalEdgeStyle;rounded=0;orthogonalLoop=1;jettySize=auto;html=1;exitX=0.5;exitY=1;exitDx=0;exitDy=0;entryX=0;entryY=0.5;entryDx=0;entryDy=0;" edge="1" parent="1" source="QYFggorQQqFWifRBlDVO-17" target="QYFggorQQqFWifRBlDVO-35">
          <mxGeometry relative="1" as="geometry" />
        </mxCell>
        <mxCell id="QYFggorQQqFWifRBlDVO-17" value="PublishEvent" style="rounded=1;whiteSpace=wrap;html=1;fontFamily=Comic Sans MS;fillColor=#ffe6cc;strokeColor=#d79b00;" vertex="1" parent="1">
          <mxGeometry x="350" y="580" width="100" height="40" as="geometry" />
        </mxCell>
        <mxCell id="QYFggorQQqFWifRBlDVO-45" style="edgeStyle=orthogonalEdgeStyle;rounded=0;orthogonalLoop=1;jettySize=auto;html=1;exitX=0.5;exitY=1;exitDx=0;exitDy=0;entryX=0;entryY=0.5;entryDx=0;entryDy=0;" edge="1" parent="1" source="QYFggorQQqFWifRBlDVO-19" target="QYFggorQQqFWifRBlDVO-44">
          <mxGeometry relative="1" as="geometry" />
        </mxCell>
        <mxCell id="QYFggorQQqFWifRBlDVO-19" value="PublishEvent" style="rounded=1;whiteSpace=wrap;html=1;fontFamily=Comic Sans MS;fillColor=#d5e8d4;strokeColor=#82b366;" vertex="1" parent="1">
          <mxGeometry x="525" y="670" width="100" height="40" as="geometry" />
        </mxCell>
        <mxCell id="QYFggorQQqFWifRBlDVO-43" style="edgeStyle=orthogonalEdgeStyle;rounded=0;orthogonalLoop=1;jettySize=auto;html=1;exitX=0.5;exitY=1;exitDx=0;exitDy=0;entryX=0;entryY=0.5;entryDx=0;entryDy=0;" edge="1" parent="1" source="QYFggorQQqFWifRBlDVO-20" target="QYFggorQQqFWifRBlDVO-42">
          <mxGeometry relative="1" as="geometry" />
        </mxCell>
        <mxCell id="QYFggorQQqFWifRBlDVO-20" value="PublishEvent" style="rounded=1;whiteSpace=wrap;html=1;fontFamily=Comic Sans MS;fillColor=#d5e8d4;strokeColor=#82b366;" vertex="1" parent="1">
          <mxGeometry x="525" y="580" width="100" height="40" as="geometry" />
        </mxCell>
        <mxCell id="QYFggorQQqFWifRBlDVO-46" style="edgeStyle=orthogonalEdgeStyle;rounded=0;orthogonalLoop=1;jettySize=auto;html=1;exitX=0.5;exitY=1;exitDx=0;exitDy=0;entryX=0;entryY=0.5;entryDx=0;entryDy=0;" edge="1" parent="1" source="QYFggorQQqFWifRBlDVO-21" target="QYFggorQQqFWifRBlDVO-41">
          <mxGeometry relative="1" as="geometry" />
        </mxCell>
        <mxCell id="QYFggorQQqFWifRBlDVO-21" value="PublishEvent" style="rounded=1;whiteSpace=wrap;html=1;fontFamily=Comic Sans MS;fillColor=#d5e8d4;strokeColor=#82b366;" vertex="1" parent="1">
          <mxGeometry x="525" y="480" width="100" height="40" as="geometry" />
        </mxCell>
        <mxCell id="QYFggorQQqFWifRBlDVO-47" style="edgeStyle=orthogonalEdgeStyle;rounded=0;orthogonalLoop=1;jettySize=auto;html=1;exitX=0.5;exitY=1;exitDx=0;exitDy=0;entryX=0;entryY=0.5;entryDx=0;entryDy=0;" edge="1" parent="1" source="QYFggorQQqFWifRBlDVO-22" target="QYFggorQQqFWifRBlDVO-40">
          <mxGeometry relative="1" as="geometry" />
        </mxCell>
        <mxCell id="QYFggorQQqFWifRBlDVO-22" value="PublishEvent" style="rounded=1;whiteSpace=wrap;html=1;fontFamily=Comic Sans MS;fillColor=#d5e8d4;strokeColor=#82b366;" vertex="1" parent="1">
          <mxGeometry x="525" y="380" width="100" height="40" as="geometry" />
        </mxCell>
        <mxCell id="QYFggorQQqFWifRBlDVO-48" style="edgeStyle=orthogonalEdgeStyle;rounded=0;orthogonalLoop=1;jettySize=auto;html=1;exitX=0.5;exitY=1;exitDx=0;exitDy=0;entryX=0;entryY=0.5;entryDx=0;entryDy=0;" edge="1" parent="1" source="QYFggorQQqFWifRBlDVO-23" target="QYFggorQQqFWifRBlDVO-39">
          <mxGeometry relative="1" as="geometry" />
        </mxCell>
        <mxCell id="QYFggorQQqFWifRBlDVO-23" value="PublishEvent" style="rounded=1;whiteSpace=wrap;html=1;fontFamily=Comic Sans MS;fillColor=#d5e8d4;strokeColor=#82b366;" vertex="1" parent="1">
          <mxGeometry x="525" y="280" width="100" height="40" as="geometry" />
        </mxCell>
        <mxCell id="QYFggorQQqFWifRBlDVO-29" value="To subscribers" style="text;html=1;strokeColor=none;fillColor=none;align=center;verticalAlign=middle;whiteSpace=wrap;rounded=0;" vertex="1" parent="1">
          <mxGeometry x="435" y="330" width="90" height="30" as="geometry" />
        </mxCell>
        <mxCell id="QYFggorQQqFWifRBlDVO-31" value="To subscribers" style="text;html=1;strokeColor=none;fillColor=none;align=center;verticalAlign=middle;whiteSpace=wrap;rounded=0;" vertex="1" parent="1">
          <mxGeometry x="435" y="440" width="90" height="30" as="geometry" />
        </mxCell>
        <mxCell id="QYFggorQQqFWifRBlDVO-33" value="To subscribers" style="text;html=1;strokeColor=none;fillColor=none;align=center;verticalAlign=middle;whiteSpace=wrap;rounded=0;" vertex="1" parent="1">
          <mxGeometry x="435" y="540" width="90" height="30" as="geometry" />
        </mxCell>
        <mxCell id="QYFggorQQqFWifRBlDVO-35" value="To subscribers" style="text;html=1;strokeColor=none;fillColor=none;align=center;verticalAlign=middle;whiteSpace=wrap;rounded=0;" vertex="1" parent="1">
          <mxGeometry x="435" y="630" width="90" height="30" as="geometry" />
        </mxCell>
        <mxCell id="QYFggorQQqFWifRBlDVO-37" value="To subscribers" style="text;html=1;strokeColor=none;fillColor=none;align=center;verticalAlign=middle;whiteSpace=wrap;rounded=0;" vertex="1" parent="1">
          <mxGeometry x="610" y="240" width="90" height="30" as="geometry" />
        </mxCell>
        <mxCell id="QYFggorQQqFWifRBlDVO-39" value="To subscribers" style="text;html=1;strokeColor=none;fillColor=none;align=center;verticalAlign=middle;whiteSpace=wrap;rounded=0;" vertex="1" parent="1">
          <mxGeometry x="610" y="330" width="90" height="30" as="geometry" />
        </mxCell>
        <mxCell id="QYFggorQQqFWifRBlDVO-40" value="To subscribers" style="text;html=1;strokeColor=none;fillColor=none;align=center;verticalAlign=middle;whiteSpace=wrap;rounded=0;" vertex="1" parent="1">
          <mxGeometry x="610" y="440" width="90" height="30" as="geometry" />
        </mxCell>
        <mxCell id="QYFggorQQqFWifRBlDVO-41" value="To subscribers" style="text;html=1;strokeColor=none;fillColor=none;align=center;verticalAlign=middle;whiteSpace=wrap;rounded=0;" vertex="1" parent="1">
          <mxGeometry x="610" y="540" width="90" height="30" as="geometry" />
        </mxCell>
        <mxCell id="QYFggorQQqFWifRBlDVO-42" value="To subscribers" style="text;html=1;strokeColor=none;fillColor=none;align=center;verticalAlign=middle;whiteSpace=wrap;rounded=0;" vertex="1" parent="1">
          <mxGeometry x="610" y="640" width="90" height="30" as="geometry" />
        </mxCell>
        <mxCell id="QYFggorQQqFWifRBlDVO-44" value="To subscribers" style="text;html=1;strokeColor=none;fillColor=none;align=center;verticalAlign=middle;whiteSpace=wrap;rounded=0;" vertex="1" parent="1">
          <mxGeometry x="620" y="740" width="90" height="30" as="geometry" />
        </mxCell>
      </root>
    </mxGraphModel>
  </diagram>
  <diagram id="-sJE_ee3khhSB1kWu9gb" name="Page-2">
    <mxGraphModel dx="1190" dy="778" grid="1" gridSize="10" guides="1" tooltips="1" connect="1" arrows="1" fold="1" page="1" pageScale="1" pageWidth="850" pageHeight="1100" math="0" shadow="0">
      <root>
        <mxCell id="0" />
        <mxCell id="1" parent="0" />
        <mxCell id="D-vHFHt9gqxbtqwNaS38-16" style="edgeStyle=orthogonalEdgeStyle;rounded=0;orthogonalLoop=1;jettySize=auto;html=1;exitX=0.5;exitY=1;exitDx=0;exitDy=0;entryX=0.5;entryY=0;entryDx=0;entryDy=0;endArrow=none;endFill=0;" edge="1" parent="1" source="D-vHFHt9gqxbtqwNaS38-1" target="D-vHFHt9gqxbtqwNaS38-5">
          <mxGeometry relative="1" as="geometry" />
        </mxCell>
        <mxCell id="D-vHFHt9gqxbtqwNaS38-17" style="edgeStyle=orthogonalEdgeStyle;rounded=0;orthogonalLoop=1;jettySize=auto;html=1;exitX=1;exitY=0.5;exitDx=0;exitDy=0;entryX=0;entryY=0.5;entryDx=0;entryDy=0;endArrow=none;endFill=0;" edge="1" parent="1" source="D-vHFHt9gqxbtqwNaS38-1" target="D-vHFHt9gqxbtqwNaS38-13">
          <mxGeometry relative="1" as="geometry" />
        </mxCell>
        <mxCell id="D-vHFHt9gqxbtqwNaS38-24" style="edgeStyle=orthogonalEdgeStyle;rounded=0;orthogonalLoop=1;jettySize=auto;html=1;exitX=1;exitY=0.5;exitDx=0;exitDy=0;entryX=0;entryY=0.5;entryDx=0;entryDy=0;" edge="1" parent="1" source="D-vHFHt9gqxbtqwNaS38-1" target="D-vHFHt9gqxbtqwNaS38-20">
          <mxGeometry relative="1" as="geometry" />
        </mxCell>
        <mxCell id="D-vHFHt9gqxbtqwNaS38-25" style="edgeStyle=orthogonalEdgeStyle;rounded=0;orthogonalLoop=1;jettySize=auto;html=1;exitX=1;exitY=0.5;exitDx=0;exitDy=0;entryX=0;entryY=0.5;entryDx=0;entryDy=0;" edge="1" parent="1" source="D-vHFHt9gqxbtqwNaS38-1" target="D-vHFHt9gqxbtqwNaS38-22">
          <mxGeometry relative="1" as="geometry" />
        </mxCell>
        <mxCell id="D-vHFHt9gqxbtqwNaS38-1" value="EventPublisher" style="rounded=1;whiteSpace=wrap;html=1;fontFamily=Comic Sans MS;dashed=1;fillColor=#d5e8d4;strokeColor=#82b366;" vertex="1" parent="1">
          <mxGeometry x="430" y="80" width="110" height="60" as="geometry" />
        </mxCell>
        <mxCell id="D-vHFHt9gqxbtqwNaS38-7" style="edgeStyle=orthogonalEdgeStyle;rounded=0;orthogonalLoop=1;jettySize=auto;html=1;exitX=1;exitY=0.5;exitDx=0;exitDy=0;entryX=0;entryY=0.5;entryDx=0;entryDy=0;" edge="1" parent="1" source="D-vHFHt9gqxbtqwNaS38-2" target="D-vHFHt9gqxbtqwNaS38-4">
          <mxGeometry relative="1" as="geometry" />
        </mxCell>
        <mxCell id="D-vHFHt9gqxbtqwNaS38-2" value="MethodCall1()" style="rounded=1;whiteSpace=wrap;html=1;fontFamily=Comic Sans MS;fillColor=#dae8fc;strokeColor=#6c8ebf;" vertex="1" parent="1">
          <mxGeometry x="80" y="170" width="120" height="40" as="geometry" />
        </mxCell>
        <mxCell id="D-vHFHt9gqxbtqwNaS38-8" style="edgeStyle=orthogonalEdgeStyle;rounded=0;orthogonalLoop=1;jettySize=auto;html=1;exitX=1;exitY=0.5;exitDx=0;exitDy=0;entryX=0;entryY=0.5;entryDx=0;entryDy=0;" edge="1" parent="1" source="D-vHFHt9gqxbtqwNaS38-4" target="D-vHFHt9gqxbtqwNaS38-5">
          <mxGeometry relative="1" as="geometry" />
        </mxCell>
        <mxCell id="D-vHFHt9gqxbtqwNaS38-4" value="&quot;EventName&quot;" style="rounded=1;whiteSpace=wrap;html=1;fontFamily=Comic Sans MS;fillColor=#fff2cc;strokeColor=#d6b656;" vertex="1" parent="1">
          <mxGeometry x="230" y="180" width="150" height="20" as="geometry" />
        </mxCell>
        <mxCell id="D-vHFHt9gqxbtqwNaS38-18" style="edgeStyle=orthogonalEdgeStyle;rounded=0;orthogonalLoop=1;jettySize=auto;html=1;exitX=1;exitY=0.5;exitDx=0;exitDy=0;entryX=0;entryY=0.5;entryDx=0;entryDy=0;" edge="1" parent="1" source="D-vHFHt9gqxbtqwNaS38-5" target="D-vHFHt9gqxbtqwNaS38-14">
          <mxGeometry relative="1" as="geometry">
            <Array as="points">
              <mxPoint x="540" y="190" />
              <mxPoint x="540" y="215" />
            </Array>
          </mxGeometry>
        </mxCell>
        <mxCell id="D-vHFHt9gqxbtqwNaS38-26" style="edgeStyle=orthogonalEdgeStyle;rounded=0;orthogonalLoop=1;jettySize=auto;html=1;exitX=1;exitY=0.5;exitDx=0;exitDy=0;entryX=0;entryY=0.5;entryDx=0;entryDy=0;" edge="1" parent="1" source="D-vHFHt9gqxbtqwNaS38-5" target="D-vHFHt9gqxbtqwNaS38-21">
          <mxGeometry relative="1" as="geometry">
            <Array as="points">
              <mxPoint x="540" y="190" />
              <mxPoint x="540" y="295" />
            </Array>
          </mxGeometry>
        </mxCell>
        <mxCell id="D-vHFHt9gqxbtqwNaS38-27" style="edgeStyle=orthogonalEdgeStyle;rounded=0;orthogonalLoop=1;jettySize=auto;html=1;exitX=1;exitY=0.5;exitDx=0;exitDy=0;entryX=0;entryY=0.5;entryDx=0;entryDy=0;" edge="1" parent="1" source="D-vHFHt9gqxbtqwNaS38-5" target="D-vHFHt9gqxbtqwNaS38-23">
          <mxGeometry relative="1" as="geometry">
            <Array as="points">
              <mxPoint x="540" y="190" />
              <mxPoint x="540" y="385" />
            </Array>
          </mxGeometry>
        </mxCell>
        <mxCell id="D-vHFHt9gqxbtqwNaS38-5" value="PublishEvent" style="rounded=1;whiteSpace=wrap;html=1;fontFamily=Comic Sans MS;fillColor=#d5e8d4;strokeColor=#82b366;" vertex="1" parent="1">
          <mxGeometry x="435" y="170" width="100" height="40" as="geometry" />
        </mxCell>
        <mxCell id="D-vHFHt9gqxbtqwNaS38-11" style="edgeStyle=orthogonalEdgeStyle;rounded=0;orthogonalLoop=1;jettySize=auto;html=1;exitX=1;exitY=0.5;exitDx=0;exitDy=0;entryX=0;entryY=0.5;entryDx=0;entryDy=0;" edge="1" parent="1" source="D-vHFHt9gqxbtqwNaS38-9" target="D-vHFHt9gqxbtqwNaS38-10">
          <mxGeometry relative="1" as="geometry" />
        </mxCell>
        <mxCell id="D-vHFHt9gqxbtqwNaS38-9" value="MethodCallN()" style="rounded=1;whiteSpace=wrap;html=1;fontFamily=Comic Sans MS;fillColor=#dae8fc;strokeColor=#6c8ebf;" vertex="1" parent="1">
          <mxGeometry x="80" y="220" width="120" height="40" as="geometry" />
        </mxCell>
        <mxCell id="D-vHFHt9gqxbtqwNaS38-12" style="edgeStyle=orthogonalEdgeStyle;rounded=0;orthogonalLoop=1;jettySize=auto;html=1;exitX=1;exitY=0.5;exitDx=0;exitDy=0;entryX=0;entryY=0.5;entryDx=0;entryDy=0;" edge="1" parent="1" source="D-vHFHt9gqxbtqwNaS38-10" target="D-vHFHt9gqxbtqwNaS38-5">
          <mxGeometry relative="1" as="geometry" />
        </mxCell>
        <mxCell id="D-vHFHt9gqxbtqwNaS38-10" value="&quot;EventName&quot;" style="rounded=1;whiteSpace=wrap;html=1;fontFamily=Comic Sans MS;fillColor=#fff2cc;strokeColor=#d6b656;" vertex="1" parent="1">
          <mxGeometry x="230" y="230" width="150" height="20" as="geometry" />
        </mxCell>
        <mxCell id="D-vHFHt9gqxbtqwNaS38-19" style="edgeStyle=orthogonalEdgeStyle;rounded=0;orthogonalLoop=1;jettySize=auto;html=1;exitX=0.75;exitY=1;exitDx=0;exitDy=0;entryX=0.5;entryY=0;entryDx=0;entryDy=0;endArrow=none;endFill=0;" edge="1" parent="1" source="D-vHFHt9gqxbtqwNaS38-13" target="D-vHFHt9gqxbtqwNaS38-14">
          <mxGeometry relative="1" as="geometry" />
        </mxCell>
        <mxCell id="D-vHFHt9gqxbtqwNaS38-13" value="EventSubscriber" style="rounded=1;whiteSpace=wrap;html=1;fontFamily=Comic Sans MS;fillColor=#e1d5e7;strokeColor=#9673a6;dashed=1;" vertex="1" parent="1">
          <mxGeometry x="590" y="160" width="120" height="30" as="geometry" />
        </mxCell>
        <mxCell id="D-vHFHt9gqxbtqwNaS38-14" value="ReceiveEventUpdate" style="rounded=1;whiteSpace=wrap;html=1;fontFamily=Comic Sans MS;fillColor=#e1d5e7;strokeColor=#9673a6;" vertex="1" parent="1">
          <mxGeometry x="630" y="200" width="130" height="30" as="geometry" />
        </mxCell>
        <mxCell id="D-vHFHt9gqxbtqwNaS38-20" value="EventSubscriber" style="rounded=1;whiteSpace=wrap;html=1;fontFamily=Comic Sans MS;fillColor=#e1d5e7;strokeColor=#9673a6;dashed=1;" vertex="1" parent="1">
          <mxGeometry x="590" y="240" width="120" height="30" as="geometry" />
        </mxCell>
        <mxCell id="D-vHFHt9gqxbtqwNaS38-21" value="ReceiveEventUpdate" style="rounded=1;whiteSpace=wrap;html=1;fontFamily=Comic Sans MS;fillColor=#e1d5e7;strokeColor=#9673a6;" vertex="1" parent="1">
          <mxGeometry x="630" y="280" width="130" height="30" as="geometry" />
        </mxCell>
        <mxCell id="D-vHFHt9gqxbtqwNaS38-22" value="EventSubscriber" style="rounded=1;whiteSpace=wrap;html=1;fontFamily=Comic Sans MS;fillColor=#e1d5e7;strokeColor=#9673a6;dashed=1;" vertex="1" parent="1">
          <mxGeometry x="590" y="330" width="120" height="30" as="geometry" />
        </mxCell>
        <mxCell id="D-vHFHt9gqxbtqwNaS38-23" value="ReceiveEventUpdate" style="rounded=1;whiteSpace=wrap;html=1;fontFamily=Comic Sans MS;fillColor=#e1d5e7;strokeColor=#9673a6;" vertex="1" parent="1">
          <mxGeometry x="630" y="370" width="130" height="30" as="geometry" />
        </mxCell>
      </root>
    </mxGraphModel>
  </diagram>
</mxfile>
